<svg xmlns="http://www.w3.org/2000/svg" aria-hidden="true" style="position:absolute;width:0;height:0;overflow:hidden"><defs><symbol id="accessibility" viewBox="0 0 15 15"><path fill-rule="evenodd" d="M.877 7.5a6.623 6.623 0 1 1 13.246 0 6.623 6.623 0 0 1-13.246 0M7.5 1.827a5.673 5.673 0 1 0 0 11.346 5.673 5.673 0 0 0 0-11.346M7.125 9c-.055.127-.793 2.96-.793 2.96a.5.5 0 1 1-.966-.26s.88-2.827.88-3.43V6.801l-1.958-.525a.5.5 0 1 1 .258-.966s1.654.563 2.3.563h1.309c.645 0 2.298-.563 2.298-.563a.5.5 0 1 1 .26.966l-1.966.527V8.27c0 .603.88 3.427.88 3.427a.5.5 0 0 1-.966.259S7.92 9.127 7.869 9c-.05-.127-.219-.127-.219-.127h-.307s-.173 0-.218.127M7.5 5.12a1.125 1.125 0 1 0 0-2.25 1.125 1.125 0 0 0 0 2.25" clip-rule="evenodd"/></symbol><symbol id="bell" viewBox="0 0 15 15"><path fill-rule="evenodd" d="M8.601 1.25a1.1 1.1 0 0 1-.8 1.06A4.5 4.5 0 0 1 12 6.8v3.45c0 .806.033 1.457.724 1.803A.5.5 0 0 1 12.5 13H8.161a1 1 0 1 1-1.323 0H2.5a.5.5 0 0 1-.224-.947c.691-.346.724-.997.724-1.803V6.8a4.5 4.5 0 0 1 4.2-4.49 1.1 1.1 0 1 1 1.401-1.06M7.5 3.3A3.5 3.5 0 0 0 4 6.8v3.5c0 .446.001 1.108-.3 1.7h7.6c-.301-.592-.3-1.254-.3-1.7V6.8a3.5 3.5 0 0 0-3.5-3.5" clip-rule="evenodd"/></symbol><symbol id="box" viewBox="0 0 15 15"><path fill-rule="evenodd" d="M12.5 2h-10a.5.5 0 0 0-.5.5v10a.5.5 0 0 0 .5.5h10a.5.5 0 0 0 .5-.5v-10a.5.5 0 0 0-.5-.5m-10-1A1.5 1.5 0 0 0 1 2.5v10A1.5 1.5 0 0 0 2.5 14h10a1.5 1.5 0 0 0 1.5-1.5v-10A1.5 1.5 0 0 0 12.5 1z" clip-rule="evenodd"/></symbol><symbol id="cookie" viewBox="0 0 15 15"><path fill-rule="evenodd" d="M12.07 1.767c.41-.548-.61-1.313-1.02-.765-.412.548.609 1.313 1.02.765m-3.677-.689a7.53 7.53 0 0 0-3.809.631c-1.198.547-2.257 1.444-2.796 2.71-.412.968-.77 1.862-.787 3.025-.016 1.154.304 2.525 1.13 4.484.48 1.137 1.909 1.617 3.008 1.88 1.27.304 2.67.383 3.525.266.701-.096 1.48-.246 2.135-.777 1.099-.893 2.102-1.902 2.7-2.958.605-1.067.827-2.247.223-3.386-.16-.3-.406-.376-.68-.46-.105-.033-.213-.066-.321-.113-1.1-.478-1.756-1.03-1.807-1.351-.048-.3.008-.514.067-.737.032-.12.064-.243.082-.383.02-.172.018-.576-.363-.781-.295-.16-.484-.47-.66-.759q-.064-.107-.128-.207c-.286-.438-.704-1-1.52-1.084M4.999 2.62c-1.034.472-1.873 1.212-2.29 2.191-.41.964-.695 1.699-.708 2.648-.014.956.25 2.179 1.052 4.081.339.803 1.569 1.117 2.319 1.296 1.177.282 2.45.345 3.157.248.684-.093 1.217-.219 1.64-.562 1.06-.862 1.952-1.778 2.46-2.675.306-.539.885-2.143 0-2.459-1.875-.668-2.367-1.32-2.639-1.974-.18-.436-.161-.89-.033-1.334.02-.066.038-.131.076-.19a2.4 2.4 0 0 1-.518-.517c-.086-.114-.168-.251-.253-.393-.243-.408-.512-.859-.972-.906A6.53 6.53 0 0 0 5 2.619m8.21 1.156c.232-.548-.754-1.139-1.127-.673-.5.625.82 1.39 1.126.673m1.158-1.515c.6.015.788-1.144.205-1.31-.764-.219-.98 1.291-.205 1.31m-.081 2.831c.578.009.76-.709.197-.812-.738-.135-.946.8-.197.812m-7.378-.804c-.439.38-.856-.135-.928-.55-.112-.64.357-1.168.968-.825.485.272.319 1.063-.04 1.375M4.945 5.882c.464-.464-.35-1.312-.83-.83-.282.28-.106.602.122.83a.5.5 0 0 0 .708 0m2.032.838c.335.67 1.511.072 1.017-.572a.54.54 0 0 0-.373-.206c-.409-.046-.858.35-.644.778m.011 2.005c.153.394.523.594.931.438.355-.135.413-.766.253-1.089-.149-.299-.532-.396-.835-.28-.352.136-.48.593-.351.925zm3.4.116c.37-.184 1.074-.013 1.074.471 0 .4-.503.905-.899.97-.382.065-.858-.306-.797-.705.048-.312.356-.603.623-.736m-2.821 2.002a.52.52 0 0 0-.453.034h-.001c-.205.118-.4.367-.438.607-.085.52.457.64.852.615.68-.044.538-1.056.04-1.256m-2.687.05a.5.5 0 0 0 .203-.578c-.153-.518-.758-.602-1.117-.185a.5.5 0 0 0 .026.68l.003.004.003.004c.222.276.638.368.882.075m-1.833-3.08c.284.285.554.338.937.246.624-.15.154-1.816-.937-1.186-.338.195-.18.76 0 .94" clip-rule="evenodd"/></symbol><symbol id="download" viewBox="0 0 15 15"><path fill-rule="evenodd" d="M7.5 1.05a.45.45 0 0 1 .45.45v6.914l2.232-2.232a.45.45 0 1 1 .636.636l-3 3a.45.45 0 0 1-.636 0l-3-3a.45.45 0 1 1 .636-.636L7.05 8.414V1.5a.45.45 0 0 1 .45-.45M2.5 10a.5.5 0 0 1 .5.5V12c0 .554.446 1 .996 1h7.005A1 1 0 0 0 12 12v-1.5a.5.5 0 0 1 1 0V12c0 1.104-.894 2-1.999 2H3.996A1.997 1.997 0 0 1 2 12v-1.5a.5.5 0 0 1 .5-.5" clip-rule="evenodd"/></symbol><symbol id="face" viewBox="0 0 15 15"><path fill-rule="evenodd" d="M7.5.877a6.623 6.623 0 1 0 0 13.246A6.623 6.623 0 0 0 7.5.877M1.827 7.5a5.673 5.673 0 1 1 11.346 0 5.673 5.673 0 0 1-11.346 0m3.21 1.714a.5.5 0 1 0-.82.572A4 4 0 0 0 7.5 11.5c1.36 0 2.56-.679 3.283-1.714a.5.5 0 0 0-.82-.572A3 3 0 0 1 7.5 10.5a3 3 0 0 1-2.463-1.286m.338-2.364a.875.875 0 1 0 0-1.75.875.875 0 0 0 0 1.75m5.125-.875a.875.875 0 1 1-1.75 0 .875.875 0 0 1 1.75 0" clip-rule="evenodd"/></symbol><symbol id="file" viewBox="0 0 15 15"><path fill-rule="evenodd" d="M3.5 2a.5.5 0 0 0-.5.5v10a.5.5 0 0 0 .5.5h8a.5.5 0 0 0 .5-.5V6H8.5a.5.5 0 0 1-.5-.5V2zm5.5.707L11.293 5H9zM2 2.5A1.5 1.5 0 0 1 3.5 1h5a.5.5 0 0 1 .354.146l4 4A.5.5 0 0 1 13 5.5v7a1.5 1.5 0 0 1-1.5 1.5h-8A1.5 1.5 0 0 1 2 12.5z" clip-rule="evenodd"/></symbol><symbol id="hand" viewBox="0 0 15 15"><path fill-rule="evenodd" d="M6.811 1.647c-.19 1.232-.128 2.238-.043 3.658q.024.388.049.823a.5.5 0 0 1-.992.115l-.077-.436c-.104-.642-.264-1.552-.57-2.36-.316-.834-.73-1.406-1.244-1.587-.284-.099-.515-.017-.675.15a.82.82 0 0 0-.196.744c.152.59.383 1.163.635 1.764l.068.162c.23.545.47 1.117.65 1.71v.002c.146.484.24.867.315 1.17l.08.322A.5.5 0 0 1 4 8.387a10 10 0 0 1-.68-.669l-.122-.13c-.15-.16-.28-.3-.414-.428-.323-.309-.599-.48-.977-.516h-.003c-.242-.025-.389.02-.485.082-.099.063-.198.178-.28.386-.061.173-.023.518.155.857l.004.008c.204.408.548.839.984 1.316q.326.352.688.724l.01.011c.236.244.48.497.718.755.832.903 1.68 1.97 1.866 3.217h6.046c.055-1.565.367-2.732.778-3.865.158-.435.325-.85.496-1.277.327-.817.668-1.669.988-2.75.328-1.11.239-1.738.09-2.068-.144-.321-.37-.422-.48-.444-.243-.048-.343.013-.411.083-.103.104-.2.304-.278.624a9 9 0 0 0-.159 1.022l-.003.028c-.038.32-.08.677-.163.948a.54.54 0 0 1-.17.274.5.5 0 0 1-.366.118c-.289-.024-.46-.272-.466-.545-.009-.393.023-.79.042-1.182.036-.73.07-1.432.018-2.132V2.83c-.033-.499-.376-.827-.724-.906a.64.64 0 0 0-.466.06c-.132.076-.28.23-.378.53v.004c-.042.123-.084.36-.12.695a21 21 0 0 0-.085 1.082c-.02.326-.034.664-.048.968-.017.383-.031.712-.048.891a.5.5 0 0 1-.061.205c-.021.04-.134.251-.424.26a.51.51 0 0 1-.454-.259c-.06-.11-.066-.24-.07-.366l-.005-.445c-.003-.342-.003-.729-.003-.838 0-1.044 0-2.056-.092-3.066-.055-.403-.384-.64-.803-.644s-.765.227-.833.647m2.601-.285C9.215.448 8.4.008 7.654 0c-.79-.008-1.666.466-1.83 1.49v.003q-.062.397-.093.774c-.337-.593-.805-1.118-1.465-1.35a1.61 1.61 0 0 0-1.73.403 1.82 1.82 0 0 0-.446 1.667l.003.01c.172.671.431 1.306.683 1.908l.066.156c.18.427.352.838.497 1.252-.375-.332-.82-.605-1.436-.665-.414-.041-.8.027-1.125.236-.324.208-.537.52-.674.87l-.003.009c-.203.55-.035 1.209.204 1.666.269.536.691 1.05 1.139 1.54.226.247.467.496.706.743l.007.007q.359.37.704.74C3.81 12.49 4.5 13.464 4.5 14.5a.5.5 0 0 0 .5.5h7a.5.5 0 0 0 .5-.5c0-1.679.302-2.854.727-4.024.138-.38.295-.77.46-1.184.337-.843.711-1.779 1.043-2.9.366-1.239.326-2.133.043-2.762-.286-.638-.793-.935-1.197-1.015-.448-.089-.84-.01-1.15.216l-.004-.07c-.063-.95-.731-1.638-1.499-1.813a1.64 1.64 0 0 0-1.188.17 1.6 1.6 0 0 0-.323.244" clip-rule="evenodd"/></symbol><symbol id="heart-filled" viewBox="0 0 15 15"><path fill-rule="evenodd" d="M1.352 4.905a3.547 3.547 0 0 1 3.541-3.553c1.365 0 1.968.571 2.607 1.583.64-1.012 1.242-1.583 2.607-1.583a3.547 3.547 0 0 1 3.54 3.553c0 1.835-1.046 3.6-2.246 5.064-1.137 1.387-2.48 2.582-3.395 3.397l-.173.155a.5.5 0 0 1-.666 0l-.173-.155c-.916-.815-2.258-2.01-3.395-3.397C2.4 8.505 1.352 6.74 1.352 4.905" clip-rule="evenodd"/></symbol><symbol id="heart" viewBox="0 0 15 15"><path fill-rule="evenodd" d="M4.893 2.352a2.547 2.547 0 0 0-2.54 2.553c0 1.477.857 3.012 2.02 4.43 1.021 1.246 2.222 2.335 3.127 3.143.905-.808 2.106-1.897 3.127-3.143 1.163-1.418 2.02-2.953 2.02-4.43a2.547 2.547 0 0 0-2.54-2.553c-.836 0-1.288.291-1.567.606-.261.295-.394.628-.515.932l-.063.156a.5.5 0 0 1-.924 0l-.063-.156c-.121-.304-.254-.637-.515-.932-.279-.315-.73-.606-1.567-.606m-3.54 2.553a3.547 3.547 0 0 1 3.54-3.553c1.115 0 1.842.408 2.316.943.112.126.208.259.291.39.083-.131.18-.264.291-.39.474-.535 1.2-.943 2.316-.943a3.547 3.547 0 0 1 3.54 3.553c0 1.835-1.046 3.6-2.246 5.064-1.137 1.387-2.48 2.582-3.395 3.397l-.173.155a.5.5 0 0 1-.666 0l-.173-.155c-.916-.815-2.258-2.01-3.395-3.397C2.4 8.505 1.352 6.74 1.352 4.905" clip-rule="evenodd"/></symbol><symbol id="image" viewBox="0 0 15 15"><path fill-rule="evenodd" d="M2.5 1h10A1.5 1.5 0 0 1 14 2.5v10a1.5 1.5 0 0 1-1.5 1.5h-10A1.5 1.5 0 0 1 1 12.5v-10A1.5 1.5 0 0 1 2.5 1m0 1a.5.5 0 0 0-.5.5v5.864l1.682-1.682a.45.45 0 0 1 .647.01l3.545 3.798 2.808-2.808a.45.45 0 0 1 .636 0L13 9.364V2.5a.5.5 0 0 0-.5-.5zM2 12.5V9.636l1.989-1.988 3.542 3.794L8.941 13H2.5a.5.5 0 0 1-.5-.5m10.5.5h-2.345l-1.672-1.847L11 8.636l2 2V12.5a.5.5 0 0 1-.5.5M6.65 5.5a.85.85 0 1 1 1.7 0 .85.85 0 0 1-1.7 0m.85-1.75a1.75 1.75 0 1 0 0 3.5 1.75 1.75 0 0 0 0-3.5" clip-rule="evenodd"/></symbol><symbol id="magic-wand" viewBox="0 0 15 15"><path fill-rule="evenodd" d="M13.9.5a.4.4 0 0 0-.8 0v.6h-.6a.4.4 0 0 0 0 .8h.6v.6a.4.4 0 0 0 .8 0v-.6h.6a.4.4 0 0 0 0-.8h-.6zm-2.046 2.646a.5.5 0 0 1 0 .708l-1 1a.5.5 0 1 1-.707-.708l1-1a.5.5 0 0 1 .707 0m-2 2a.5.5 0 0 1 0 .708l-7 7a.5.5 0 1 1-.708-.708l7-7a.5.5 0 0 1 .708 0M13.5 5.1c.22 0 .4.18.4.4v.6h.6a.4.4 0 0 1 0 .8h-.6v.6a.4.4 0 0 1-.8 0v-.6h-.6a.4.4 0 0 1 0-.8h.6v-.6c0-.22.18-.4.4-.4M8.9.5a.4.4 0 0 0-.8 0v.6h-.6a.4.4 0 1 0 0 .8h.6v.6a.4.4 0 1 0 .8 0v-.6h.6a.4.4 0 0 0 0-.8h-.6z" clip-rule="evenodd"/></symbol><symbol id="magnifying-glass" viewBox="0 0 15 15"><path fill-rule="evenodd" d="M10 6.5a3.5 3.5 0 1 1-7 0 3.5 3.5 0 0 1 7 0m-.691 3.516a4.5 4.5 0 1 1 .707-.707l2.838 2.837a.5.5 0 0 1-.708.708z" clip-rule="evenodd"/></symbol><symbol id="question-mark-circled" viewBox="0 0 15 15"><path fill-rule="evenodd" d="M.877 7.5a6.623 6.623 0 1 1 13.246 0 6.623 6.623 0 0 1-13.246 0M7.5 1.827a5.673 5.673 0 1 0 0 11.346 5.673 5.673 0 0 0 0-11.346m.75 8.673a.75.75 0 1 1-1.5 0 .75.75 0 0 1 1.5 0m-2.2-4.25c0-.678.585-1.325 1.45-1.325s1.45.647 1.45 1.325c0 .491-.27.742-.736 1.025q-.078.047-.176.104a5 5 0 0 0-.564.36c-.242.188-.524.493-.524.961a.55.55 0 0 0 1.1.004.4.4 0 0 1 .1-.098c.102-.079.215-.144.366-.232q.116-.067.27-.159c.534-.325 1.264-.861 1.264-1.965 0-1.322-1.115-2.425-2.55-2.425S4.95 4.928 4.95 6.25a.55.55 0 0 0 1.1 0" clip-rule="evenodd"/></symbol><symbol id="speaker-loud" viewBox="0 0 15 15"><path fill-rule="evenodd" d="M7.47 1.05a.5.5 0 0 1 .28.45v12a.5.5 0 0 1-.807.395L3.221 11H1.5A1.5 1.5 0 0 1 0 9.5v-4A1.5 1.5 0 0 1 1.5 4h1.721l3.722-2.895a.5.5 0 0 1 .527-.054m-.72 1.472L3.7 4.895A.5.5 0 0 1 3.393 5H1.5a.5.5 0 0 0-.5.5v4a.5.5 0 0 0 .5.5h1.893a.5.5 0 0 1 .307.105l3.05 2.373zm3.528 1.326a.4.4 0 0 1 .555.111 6.41 6.41 0 0 1 0 7.081.4.4 0 0 1-.666-.443 5.61 5.61 0 0 0 0-6.194.4.4 0 0 1 .111-.555m2.4-2.418a.4.4 0 0 0-.61.518 8.6 8.6 0 0 1 0 11.104.4.4 0 0 0 .61.518 9.4 9.4 0 0 0 0-12.14" clip-rule="evenodd"/></symbol><symbol id="square" viewBox="0 0 15 15"><path fill-rule="evenodd" d="M1 1h13v13H1V1m1 1v11h11V2z" clip-rule="evenodd"/></symbol><symbol id="stack" viewBox="0 0 15 15"><path fill-rule="evenodd" d="M7.754 1.82a.5.5 0 0 0-.508 0l-5.5 3.25a.5.5 0 0 0 0 .86l5.5 3.25a.5.5 0 0 0 .508 0l5.5-3.25a.5.5 0 0 0 0-.86zM7.5 8.17 2.983 5.5 7.5 2.83l4.517 2.67zm-5.246.15a.5.5 0 0 0-.508.86l5.5 3.25a.5.5 0 0 0 .508 0l5.5-3.25a.5.5 0 1 0-.508-.86L7.5 11.42z" clip-rule="evenodd"/></symbol><symbol id="star-filled" viewBox="0 0 15 15"><path d="M7.223.666a.3.3 0 0 1 .554 0L9.413 4.6a.3.3 0 0 0 .253.184l4.248.34a.3.3 0 0 1 .171.528L10.85 8.424a.3.3 0 0 0-.097.297l.99 4.145a.3.3 0 0 1-.45.326L7.657 10.97a.3.3 0 0 0-.312 0l-3.637 2.222a.3.3 0 0 1-.448-.326l.989-4.145a.3.3 0 0 0-.097-.297L.915 5.652a.3.3 0 0 1 .171-.527l4.248-.34a.3.3 0 0 0 .253-.185z"/></symbol><symbol id="star" viewBox="0 0 15 15"><path fill-rule="evenodd" d="m6.98 1.252-.022.05L5.588 4.6a.3.3 0 0 1-.253.184l-3.561.286-.055.004-.331.027-.3.024a.3.3 0 0 0-.172.527l.23.196.252.216.041.036 2.713 2.324a.3.3 0 0 1 .097.297l-.83 3.475-.012.053-.077.323-.07.294a.3.3 0 0 0 .448.326l.258-.158.284-.173.046-.028 3.049-1.863a.3.3 0 0 1 .312 0l3.049 1.863.046.028.284.173.258.158a.3.3 0 0 0 .448-.326l-.07-.293-.077-.324-.013-.053-.829-3.475a.3.3 0 0 1 .097-.297L13.562 6.1l.041-.036.253-.216.23-.196a.3.3 0 0 0-.172-.527l-.3-.024-.332-.027-.055-.004-3.56-.286a.3.3 0 0 1-.254-.184L8.042 1.302l-.021-.05-.128-.307-.116-.279a.3.3 0 0 0-.554 0l-.116.279zm.52 1.352-.99 2.38a1.3 1.3 0 0 1-1.096.797l-2.57.206 1.958 1.677a1.3 1.3 0 0 1 .418 1.29l-.598 2.507 2.2-1.344a1.3 1.3 0 0 1 1.356 0l2.2 1.344-.598-2.508a1.3 1.3 0 0 1 .418-1.289l1.958-1.677-2.57-.206a1.3 1.3 0 0 1-1.096-.797z" clip-rule="evenodd"/></symbol><symbol id="sun" viewBox="0 0 15 15"><path fill-rule="evenodd" d="M7.5 0a.5.5 0 0 1 .5.5v2a.5.5 0 0 1-1 0v-2a.5.5 0 0 1 .5-.5M2.197 2.197a.5.5 0 0 1 .707 0L4.318 3.61a.5.5 0 0 1-.707.707L2.197 2.904a.5.5 0 0 1 0-.707M.5 7a.5.5 0 0 0 0 1h2a.5.5 0 0 0 0-1zm1.697 5.803a.5.5 0 0 1 0-.707l1.414-1.414a.5.5 0 1 1 .707.707l-1.414 1.414a.5.5 0 0 1-.707 0M12.5 7a.5.5 0 0 0 0 1h2a.5.5 0 0 0 0-1zm-1.818-2.682a.5.5 0 0 1 0-.707l1.414-1.414a.5.5 0 1 1 .707.707L11.39 4.318a.5.5 0 0 1-.707 0M8 12.5a.5.5 0 0 0-1 0v2a.5.5 0 0 0 1 0zm2.682-1.818a.5.5 0 0 1 .707 0l1.414 1.414a.5.5 0 1 1-.707.707l-1.414-1.414a.5.5 0 0 1 0-.707M5.5 7.5a2 2 0 1 1 4 0 2 2 0 0 1-4 0m2-3a3 3 0 1 0 0 6 3 3 0 0 0 0-6" clip-rule="evenodd"/></symbol><symbol id="switch" viewBox="0 0 15 15"><path fill-rule="evenodd" d="M10.5 4a3.5 3.5 0 1 0 0 7 3.5 3.5 0 0 0 0-7m-2.829 7A4.5 4.5 0 0 1 6 7.5c0-1.414.652-2.675 1.671-3.5H4.5a3.5 3.5 0 1 0 0 7zM0 7.5A4.5 4.5 0 0 1 4.5 3h6a4.5 4.5 0 1 1 0 9h-6A4.5 4.5 0 0 1 0 7.5" clip-rule="evenodd"/></symbol><symbol id="symbol" viewBox="0 0 15 15"><path fill-rule="evenodd" d="M1.903 7.297c0 3.044 2.207 5.118 4.686 5.547a.521.521 0 1 1-.178 1.027C3.5 13.367.861 10.913.861 7.297c0-1.537.699-2.745 1.515-3.663.585-.658 1.254-1.193 1.792-1.602H2.532a.5.5 0 0 1 0-1h3a.5.5 0 0 1 .5.5v3a.5.5 0 0 1-1 0V2.686l-.001.002c-.572.43-1.27.957-1.875 1.638-.715.804-1.253 1.776-1.253 2.97m11.108.406c0-3.012-2.16-5.073-4.607-5.533a.521.521 0 1 1 .192-1.024c2.874.54 5.457 2.98 5.457 6.557 0 1.537-.699 2.744-1.515 3.663-.585.658-1.254 1.193-1.792 1.602h1.636a.5.5 0 1 1 0 1h-3a.5.5 0 0 1-.5-.5v-3a.5.5 0 1 1 1 0v1.845h.002c.571-.432 1.27-.958 1.874-1.64.715-.803 1.253-1.775 1.253-2.97" clip-rule="evenodd"/></symbol><symbol id="trash" viewBox="0 0 15 15"><path fill-rule="evenodd" d="M5.5 1a.5.5 0 0 0 0 1h4a.5.5 0 0 0 0-1zM3 3.5a.5.5 0 0 1 .5-.5h8a.5.5 0 0 1 0 1H11v8a1 1 0 0 1-1 1H5a1 1 0 0 1-1-1V4h-.5a.5.5 0 0 1-.5-.5M5 4h5v8H5z" clip-rule="evenodd"/></symbol><symbol id="upload" viewBox="0 0 15 15"><path fill-rule="evenodd" d="M7.818 1.182a.45.45 0 0 0-.636 0l-3 3a.45.45 0 1 0 .636.636L7.05 2.586V9.5a.45.45 0 1 0 .9 0V2.586l2.232 2.232a.45.45 0 1 0 .636-.636zM2.5 10a.5.5 0 0 1 .5.5V12c0 .554.446 1 .996 1h7.005A1 1 0 0 0 12 12v-1.5a.5.5 0 1 1 1 0V12a2 2 0 0 1-1.999 2H3.996A1.997 1.997 0 0 1 2 12v-1.5a.5.5 0 0 1 .5-.5" clip-rule="evenodd"/></symbol></defs></svg>